<?xml version="1.0" standalone="no"?>
<!DOCTYPE svg PUBLIC "-//W3C//DTD SVG 20010904//EN"
 "http://www.w3.org/TR/2001/REC-SVG-20010904/DTD/svg10.dtd">
<svg version="1.0" xmlns="http://www.w3.org/2000/svg"
 width="421.000000pt" height="421.000000pt" viewBox="0 0 421.000000 421.000000"
 preserveAspectRatio="xMidYMid meet">
<metadata>
Created by potrace 1.11, written by Peter Selinger 2001-2013
</metadata>
<g transform="translate(0.000000,421.000000) scale(0.100000,-0.100000)"
fill="#000000" stroke="none">
<path d="M2308 3595 c-2 -1 -39 -6 -83 -9 -112 -10 -120 -11 -215 -36 -190
-51 -336 -147 -442 -290 -36 -49 -98 -165 -98 -184 0 -11 -9 -16 -27 -17 -145
-6 -291 -60 -367 -134 -111 -110 -52 -214 186 -329 51 -25 79 -45 84 -59 7
-22 7 -95 -1 -132 -2 -11 -4 -24 -4 -28 -1 -4 -14 -13 -30 -18 -54 -19 -69
-82 -66 -280 2 -128 9 -269 20 -383 3 -31 -1 -42 -22 -60 -25 -22 -25 -25 -17
-92 11 -93 8 -193 -7 -211 -1 -2 -2 -6 -3 -10 -5 -31 -36 -84 -66 -114 -61
-63 -80 -86 -80 -98 0 -6 -4 -11 -9 -11 -8 0 -63 -84 -67 -102 -1 -5 -2 -9 -4
-10 -2 -3 -4 -11 -15 -58 -25 -108 10 -289 80 -405 44 -72 82 -107 155 -142
50 -24 66 -27 170 -28 110 0 241 9 305 22 40 7 118 47 148 75 43 41 52 79 31
132 -14 37 -14 40 10 75 14 20 28 51 32 68 7 33 -11 103 -27 103 -18 0 -8 22
21 46 31 27 47 77 36 119 -8 31 -63 67 -94 62 -13 -3 -20 -1 -15 4 11 11 27
11 163 6 244 -11 583 104 802 270 31 24 63 49 70 56 25 23 93 74 113 84 15 9
29 7 55 -4 50 -23 60 -23 98 -7 46 19 162 144 162 173 0 6 5 11 10 11 6 0 10
6 10 14 0 8 6 21 13 28 11 11 24 35 32 58 1 3 7 19 14 35 19 47 21 140 4 184
-19 50 -66 85 -110 83 l-34 -1 19 27 c11 15 20 30 21 35 1 4 1 8 2 10 3 10 9
49 14 87 3 25 8 61 10 80 2 19 7 57 11 84 3 27 7 57 9 67 22 115 25 356 5 439
-17 76 -72 193 -121 259 -42 57 -225 241 -240 241 -4 0 -14 6 -21 13 -14 15
-56 39 -100 59 -16 7 -28 16 -28 21 0 4 -4 6 -9 2 -5 -3 -12 -1 -15 4 -5 7
-106 46 -146 56 -3 1 -12 5 -20 8 -8 4 -26 9 -40 11 -14 3 -25 5 -25 6 0 5
-78 19 -135 25 -25 3 -59 6 -77 9 -18 2 -34 2 -35 1z m-768 -2380 c0 -3 -13
-5 -30 -5 -28 0 -69 31 -71 54 -1 6 -3 24 -5 39 -3 27 0 26 52 -27 29 -31 54
-58 54 -61z"/>
</g>
</svg>
